# xmcd
#
# Track frame offsets:
#	150
#	11752
#	24480
#	33307
#	43232
#	54617
#	66775
#	79927
#	92047
#	102067
#	115860
#	129220
#	141197
#	152182
#	164530
#	175507
#	187865
#	200462
#	215895
#	229832
#
# Disc length: 3180
#
# Revision: 5
# Processed by: cddbd v1.5.1PL0 Copyright (c) Steve Scherf et al.
# Submitted via: Grip 2.94
# Normalized: r3:TSWAP
#
DISCID=100c6a14
DTITLE=Various Artist - Heart Full Of Country
DYEAR=1900
DGENRE=
TTITLE0=George Jones - She Thinks I Still Care
TTITLE1=Patsy Cline - I Fall To Pieces
TTITLE2=Faron Young - Alone With You
TTITLE3=Wynn Stewart And the Tourists - In Love
TTITLE4=Sonny James - Young Love
TTITLE5=Charlie Rich - The Most Beautiful Girl
TTITLE6=Dolly Parton - Here You Come Again
TTITLE7=Tammy Wynette - Stand By Your Man
TTITLE8=Willie Nelson - Touch Me
TTITLE9=Gene Watson - Where Love Begins
TTITLE10=The Louvin Brothers - I Love You Best Of All
TTITLE11=Ferlin Husky - Timber, I'm Falling
TTITLE12=Hank Thompson and His Brazos Valley Boys - Waiting In The Lobby Of Your Heart
TTITLE13=Slim Whitman - More Than Yesterday
TTITLE14=Conway Twitty - Hello Darlin'
TTITLE15=Billie Jo Spears - What I've Got In Mind
TTITLE16=Jean Shepard - Then He Touched Me
TTITLE17=Billy "Crash" Craddock - If I Could Write A Song As Beautiful As You
TTITLE18=Dottie West - When it's Just You And Me
TTITLE19=Freddie Hart - Bless Your Heart
EXTD=
EXTT0=
EXTT1=
EXTT2=
EXTT3=
EXTT4=
EXTT5=
EXTT6=
EXTT7=
EXTT8=
EXTT9=
EXTT10=
EXTT11=
EXTT12=
EXTT13=
EXTT14=
EXTT15=
EXTT16=
EXTT17=
EXTT18=
EXTT19=
PLAYORDER=
